<?xml version="1.0" standalone="no"?>
<!DOCTYPE svg PUBLIC "-//W3C//DTD SVG 20010904//EN"
 "http://www.w3.org/TR/2001/REC-SVG-20010904/DTD/svg10.dtd">
<svg version="1.0" xmlns="http://www.w3.org/2000/svg"
 width="300.000000pt" height="347.000000pt" viewBox="0 0 300.000000 347.000000"
 preserveAspectRatio="xMidYMid meet">
<metadata>
Created by potrace 1.10, written by Peter Selinger 2001-2011
</metadata>
<g transform="translate(0.000000,347.000000) scale(0.100000,-0.100000)"
fill="#000000" stroke="none">
<path d="M2820 3412 c-52 -26 -149 -72 -215 -102 -120 -54 -289 -134 -354
-167 -19 -10 -34 -22 -34 -28 1 -5 27 -24 59 -41 94 -49 146 -84 142 -98 -4
-17 -141 -236 -148 -236 -3 0 -17 19 -32 43 -37 57 -150 168 -228 223 -158
111 -338 171 -540 180 -325 16 -637 -106 -877 -344 -112 -110 -120 -120 -184
-217 -52 -78 -99 -169 -129 -248 -11 -28 -24 -61 -29 -72 -59 -139 -81 -444
-45 -622 4 -20 40 -46 162 -118 9 -6 62 -37 117 -69 55 -32 123 -73 150 -91
28 -17 237 -143 465 -280 228 -136 422 -254 431 -261 20 -18 81 2 218 70 250
124 462 345 592 617 36 76 94 260 108 341 21 125 24 248 8 348 -9 52 -19 104
-22 116 -5 16 4 33 36 70 66 77 180 234 219 302 19 34 41 62 48 62 20 0 70
-28 154 -86 43 -30 82 -54 88 -54 6 0 10 26 10 63 0 89 -30 720 -35 735 -7 20
-36 13 -135 -36z m123 -337 c10 -190 20 -352 24 -360 9 -25 -17 -17 -60 19
-58 47 -142 88 -174 84 -22 -2 -37 -19 -76 -83 -84 -137 -186 -266 -306 -385
-191 -191 -328 -282 -626 -421 -117 -54 -251 -109 -265 -109 -6 0 33 33 87 74
83 62 249 207 303 265 115 120 255 290 347 421 96 135 230 334 247 367 16 32
16 33 -15 67 -17 20 -60 50 -95 67 -36 18 -61 35 -57 39 4 4 53 27 108 52 227
103 481 222 500 235 11 7 24 13 30 13 7 0 17 -118 28 -345z m-1278 55 c109
-29 219 -78 306 -136 72 -49 239 -203 239 -221 0 -6 11 -15 25 -21 14 -6 25
-15 25 -20 0 -5 -30 -51 -67 -103 -254 -357 -523 -627 -836 -839 -43 -29 -76
-55 -73 -57 6 -6 271 87 376 132 271 116 498 258 680 424 l80 73 1 -68 c0 -38
2 -78 5 -89 6 -34 6 -197 -1 -255 -28 -221 -130 -464 -271 -641 -66 -83 -176
-192 -234 -232 -25 -17 -50 -36 -57 -43 -42 -41 -249 -134 -299 -134 -22 0
-231 116 -354 196 -19 12 -205 124 -413 249 -208 124 -403 242 -432 261 -30
19 -58 34 -62 34 -18 1 -64 48 -70 71 -3 13 -7 92 -9 174 -3 121 0 169 17 250
24 122 74 270 109 325 5 8 16 29 23 45 43 93 186 273 282 353 22 19 51 43 64
54 38 33 151 103 219 136 80 40 204 79 306 97 112 20 315 12 421 -15z"/>
<path d="M870 2191 c-80 -20 -176 -111 -200 -188 -34 -110 -8 -233 66 -308 68
-68 122 -90 219 -89 97 0 155 23 215 85 98 101 114 236 44 364 -27 50 -120
124 -171 136 -43 10 -135 10 -173 0z m180 -36 c91 -32 148 -104 172 -218 10
-45 9 -62 -6 -107 -34 -104 -99 -167 -198 -190 -100 -24 -194 5 -262 80 -45
50 -63 89 -71 156 -14 114 65 239 178 281 45 16 137 16 187 -2z"/>
<path d="M300 1475 c0 -3 17 -29 38 -58 71 -99 96 -152 119 -247 16 -71 12
-152 -12 -220 -14 -41 -139 -242 -203 -329 -20 -28 -64 -89 -97 -137 -33 -48
-65 -92 -72 -99 -55 -57 -76 -123 -50 -156 10 -12 161 -109 202 -129 5 -3 43
-25 83 -49 117 -71 105 -82 283 267 82 161 154 299 159 305 5 7 31 41 57 77
41 55 60 71 123 103 111 55 220 67 400 42 32 -5 33 -4 13 6 -13 7 -23 16 -23
21 0 5 -4 7 -8 4 -5 -3 -18 4 -30 14 -12 11 -28 20 -36 20 -8 0 -17 4 -20 9
-3 5 -43 31 -89 57 -45 26 -129 77 -187 112 -58 36 -130 79 -160 95 -30 17
-57 33 -60 37 -3 4 -64 41 -137 84 -73 42 -158 94 -190 115 -69 45 -103 64
-103 56z m363 -245 c114 -69 215 -130 225 -135 181 -106 311 -190 305 -196 -4
-4 -48 -12 -98 -19 -167 -21 -279 -97 -370 -250 -21 -36 -94 -175 -163 -310
-129 -255 -145 -280 -170 -280 -18 0 -295 163 -330 193 -31 29 -28 55 15 114
119 161 157 215 285 405 32 48 73 118 91 155 29 61 32 77 32 163 0 121 -17
196 -62 266 -15 24 -8 36 16 26 9 -4 110 -63 224 -132z"/>
</g>
</svg>
